# xmcd
#
# Track frame offsets:
#	150
#	15450
#	30092
#	44660
#	58395
#	75197
#	88212
#	104855
#	117520
#	128720
#	140920
#	160237
#	174507
#	194285
#
# Disc length: 2812 seconds
#
# Revision: 1
# Processed by: cddbd v1.5.1PL2 Copyright (c) Steve Scherf et al.
# Submitted via: audiograbber 1.83.01
#
DISCID=c10afa0e
DTITLE=Kenny Hess - Every Bit A Man
DYEAR=1998
DGENRE=Country
TTITLE0=Men Are From Mars
TTITLE1=Standing On The Tip Of My Tongue
TTITLE2=Home Improvements
TTITLE3=She's Got A Way With A Heart
TTITLE4=I Won't Stand For That
TTITLE5=Let's Do Something We'll Regret
TTITLE6=Scared To Death
TTITLE7=That's How You Know You're In Love
TTITLE8=Every Bit A Man
TTITLE9=Don't Let Her In
TTITLE10=Don't Ask Me To Leave
TTITLE11=Tacoma Rona
TTITLE12=She Thought Of Everything
TTITLE13=That Can't Be Me
EXTD=
EXTT0=
EXTT1=
EXTT2=
EXTT3=
EXTT4=
EXTT5=
EXTT6=
EXTT7=
EXTT8=
EXTT9=
EXTT10=
EXTT11=
EXTT12=
EXTT13=
PLAYORDER=
